<svg viewBox="0 0 24 24" fill="none" xmlns="http://www.w3.org/2000/svg" role="img" width="16" height="16" class="sol-icon">
    <g id="icon-cross-thick">
        <path
            id="Vector"
            fill-rule="evenodd"
            clip-rule="evenodd"
            d="M14.1214 12L19.7072 6.41422C19.9025 6.21896 19.9025 5.90238 19.7072 5.70711L18.293 4.2929C18.0977 4.09764 17.7812 4.09764 17.5859 4.2929L12.0001 9.87869L6.41433 4.2929C6.21906 4.09764 5.90248 4.09764 5.70722 4.2929L4.29301 5.70711C4.09774 5.90238 4.09774 6.21896 4.29301 6.41422L9.87879 12L4.29301 17.5858C4.09774 17.7811 4.09774 18.0976 4.29301 18.2929L5.70722 19.7071C5.90248 19.9024 6.21906 19.9024 6.41433 19.7071L12.0001 14.1213L17.5859 19.7071C17.7812 19.9024 18.0977 19.9024 18.293 19.7071L19.7072 18.2929C19.9025 18.0976 19.9025 17.7811 19.7072 17.5858L14.1214 12Z"
            fill="rgb(157,146,132)"
        ></path>
    </g>
</svg>
